<?xml version="1.0" standalone="no"?>
<!DOCTYPE svg PUBLIC "-//W3C//DTD SVG 20010904//EN"
 "http://www.w3.org/TR/2001/REC-SVG-20010904/DTD/svg10.dtd">
<svg version="1.0" xmlns="http://www.w3.org/2000/svg"
 width="300.000000pt" height="300.000000pt" viewBox="0 0 300.000000 300.000000"
 preserveAspectRatio="xMidYMid meet">

<g transform="translate(0.000000,300.000000) scale(0.100000,-0.100000)"
fill="#000000" stroke="none">
<path d="M1350 2873 c0 -4 7 -15 17 -25 15 -17 15 -18 -3 -18 -11 0 -24 -4
-29 -8 -6 -5 -30 -14 -55 -21 -71 -20 -117 -55 -146 -114 -15 -28 -41 -68 -59
-88 -54 -61 -59 -91 -45 -267 12 -141 12 -155 -3 -164 -22 -12 -23 -98 -2
-184 19 -83 35 -114 59 -120 16 -4 26 -21 40 -69 10 -35 29 -87 43 -116 24
-53 24 -55 13 -182 -7 -71 -9 -138 -6 -150 3 -12 69 -78 145 -147 77 -69 140
-128 140 -131 1 -3 -24 -34 -55 -68 l-57 -62 43 -44 43 -44 -36 -73 c-33 -67
-37 -84 -47 -208 -18 -226 -14 -220 -67 -104 -61 134 -137 326 -159 399 -14
48 -17 101 -18 266 l-1 206 -40 -27 c-22 -15 -53 -34 -70 -42 -27 -13 -476
-150 -585 -178 -78 -21 -119 -74 -162 -215 -39 -124 -91 -336 -103 -415 -3
-25 -9 -53 -11 -63 -6 -21 33 -39 221 -102 441 -148 956 -218 1360 -186 266
21 525 67 770 136 139 39 346 111 369 128 16 11 15 23 -9 147 -32 163 -109
433 -136 477 -29 46 -74 81 -122 94 -298 80 -589 175 -633 207 -21 15 -43 31
-49 34 -7 4 -10 -67 -11 -205 -1 -203 -2 -216 -29 -297 -30 -93 -185 -463
-192 -457 -2 3 -11 80 -19 172 -14 157 -18 173 -50 237 l-35 69 31 25 c58 49
57 58 -5 128 l-56 64 108 98 c182 167 183 168 183 205 0 19 -5 84 -10 146
l-10 111 30 63 c16 35 35 86 41 115 9 40 17 54 34 58 25 6 41 37 60 120 21 87
20 172 -2 184 -15 9 -16 21 -5 138 7 71 12 150 12 175 0 68 -27 138 -61 158
-16 9 -29 22 -29 29 0 45 -114 130 -217 162 -44 14 -93 20 -153 20 -51 0 -105
6 -129 15 -22 8 -41 11 -41 8z"/>
</g>
</svg>
